<?xml version="1.0" encoding="iso-8859-1"?>
<!-- Generator: Adobe Illustrator 19.0.0, SVG Export Plug-In . SVG Version: 6.00 Build 0)  -->
<svg version="1.1" id="Layer_1" xmlns="http://www.w3.org/2000/svg" xmlns:xlink="http://www.w3.org/1999/xlink" x="0px" y="0px"
	 viewBox="0 0 512 512" style="enable-background:new 0 0 512 512;" xml:space="preserve">
<g transform="translate(1 1)">
	<path style="fill:#FDCC00;" d="M246.534,58.733H24.667c-9.387,0-17.067-7.68-17.067-17.067V24.6c0-9.387,7.68-17.067,17.067-17.067
		h221.867c9.387,0,17.067,7.68,17.067,17.067v17.067C263.6,51.053,255.921,58.733,246.534,58.733"/>
	<path style="fill:#FFA800;" d="M246.534,7.533h-17.067c9.387,0,17.067,7.68,17.067,17.067v17.067
		c0,9.387-7.68,17.067-17.067,17.067h17.067c9.387,0,17.067-7.68,17.067-17.067V24.6C263.6,15.213,255.921,7.533,246.534,7.533"/>
	<path style="fill:#FFFFFF;" d="M24.667,7.533h17.067c-9.387,0-17.067,7.68-17.067,17.067v17.067c0,9.387,7.68,17.067,17.067,17.067
		H24.667c-9.387,0-17.067-7.68-17.067-17.067V24.6C7.6,15.213,15.28,7.533,24.667,7.533"/>
	<path style="fill:#FFE100;" d="M410.374,278.893l-163.84-40.96v-179.2H24.667V349.72c0,49.493,34.987,91.307,82.773,100.693
		l264.533,51.2c58.027,8.533,113.493-28.16,127.147-85.333l0,0C514.481,353.133,473.521,290.84,410.374,278.893"/>
	<path style="fill:#FFFFFF;" d="M398.427,500.76l-264.533-51.2c-48.64-8.533-83.627-51.2-83.627-99.84V58.733h-25.6V349.72
		c0,49.493,34.987,91.307,82.773,100.693l264.533,51.2c10.24,1.707,20.48,1.707,29.867,0.853
		C400.987,501.613,399.281,501.613,398.427,500.76"/>
	<path style="fill:#00DA6C;" d="M456.454,298.52c-60.587,7.68-107.52,59.733-107.52,122.88c0,30.72,11.093,58.88,29.867,80.213
		c55.467,5.12,107.52-30.72,120.32-86.187l0,0C510.214,370.2,491.441,324.973,456.454,298.52"/>
	<path style="fill:#00AD55;" d="M461.574,306.2c-6.827,0.853-13.653,2.56-20.48,4.267c31.573,26.453,47.787,69.12,37.547,112.64l0,0
		c-11.093,46.933-50.347,79.36-95.573,85.333c0,0,0,0,0,0.853c55.467,5.12,107.52-30.72,120.32-86.187l0,0
		C515.334,377.88,496.561,331.8,461.574,306.2"/>
	<path style="fill:#00DA6C;" d="M186.801,465.773c1.707-46.933-21.333-101.547-64.853-145.067c-29.867-29.867-64-49.493-97.28-58.88
		v87.893c0,49.493,34.987,91.307,82.773,100.693L186.801,465.773z"/>
	<path style="fill:#FFFFFF;" d="M133.04,446.147c-47.787-8.533-82.773-51.2-82.773-99.84V272.92
		c-8.533-3.413-17.067-6.827-25.6-9.387v87.893c0,49.493,34.987,91.307,82.773,100.693l79.36,15.36c0-3.413,0-6.827,0-10.24
		L133.04,446.147z"/>
	<polygon style="fill:#FDCC00;" points="229.467,400.067 280.667,400.067 280.667,365.933 229.467,365.933 	"/>
	<path style="fill:#63D3FD;" d="M169.734,161.133h-68.267c-18.773,0-34.133-15.36-34.133-34.133l0,0
		c0-18.773,15.36-34.133,34.133-34.133h68.267c18.773,0,34.133,15.36,34.133,34.133l0,0
		C203.867,145.773,188.507,161.133,169.734,161.133"/>
	<path d="M246.534,67.267H24.667c-14.507,0-25.6-11.093-25.6-25.6V24.6c0-14.507,11.093-25.6,25.6-25.6h221.867
		c14.507,0,25.6,11.093,25.6,25.6v17.067C272.134,56.173,261.041,67.267,246.534,67.267z M24.667,16.067
		c-5.12,0-8.533,3.413-8.533,8.533v17.067c0,5.12,3.413,8.533,8.533,8.533h221.867c5.12,0,8.533-3.413,8.533-8.533V24.6
		c0-5.12-3.413-8.533-8.533-8.533H24.667z"/>
	<path d="M389.041,511c-5.973,0-11.947-0.853-17.92-1.707l-265.387-51.2c-52.053-9.387-89.6-55.467-89.6-108.373V58.733
		c0-5.12,3.413-8.533,8.533-8.533h221.867c5.12,0,8.533,3.413,8.533,8.533v172.373l157.013,39.253
		c33.28,5.973,60.587,24.747,79.36,52.907c17.92,28.16,23.893,61.44,16.213,93.867C494.854,472.6,444.507,511,389.041,511z
		 M33.2,67.267V349.72c0,45.227,32.427,83.627,75.947,92.16l264.533,51.2c52.907,8.533,104.107-26.453,116.907-79.36
		c6.827-28.16,1.707-57.173-13.653-81.067c-15.36-23.893-40.107-40.107-68.267-46.08c0,0,0,0-0.853,0l-162.987-40.107
		c-3.413-0.853-6.827-4.267-6.827-8.533V67.267H33.2z"/>
	<path d="M389.894,511c-4.267,0-7.68,0-11.947-0.853c-2.56,0-4.267-0.853-5.973-2.56c-20.48-23.893-31.573-54.613-31.573-86.187
		c0-66.56,49.493-122.88,115.2-131.413c2.56,0,4.267,0,5.973,1.707c39.253,29.013,57.173,78.507,46.08,125.44
		C494.854,472.6,445.361,511,389.894,511z M383.067,493.933c50.347,3.413,96.427-30.72,108.373-79.36
		c9.387-39.253-5.12-81.067-36.693-105.813c-55.467,8.533-96.427,57.173-96.427,113.493
		C357.467,447.853,366.854,473.453,383.067,493.933z"/>
	<path d="M186.801,474.307c-0.853,0-0.853,0-1.707,0l-79.36-15.36c-52.053-10.24-89.6-56.32-89.6-109.227v-87.893
		c0-2.56,0.853-5.12,3.413-6.827c1.707-1.707,5.12-1.707,7.68-1.707c36.693,10.24,70.827,31.573,100.693,60.587
		c43.52,43.52,69.12,100.693,67.413,151.04c0,2.56-0.853,5.12-3.413,6.827C190.214,473.453,188.507,474.307,186.801,474.307z
		 M33.2,272.92v75.947c0,45.227,32.427,83.627,75.947,92.16l69.12,13.653c-1.707-43.52-24.747-91.307-62.293-128.853
		C91.227,301.933,63.067,284.013,33.2,272.92z"/>
	<path d="M50.267,33.133c-5.12,0-8.533-3.413-8.533-8.533V7.533c0-5.12,3.413-8.533,8.533-8.533S58.8,2.413,58.8,7.533V24.6
		C58.8,29.72,55.387,33.133,50.267,33.133z"/>
	<path d="M84.4,33.133c-5.12,0-8.533-3.413-8.533-8.533V7.533C75.867,2.413,79.28-1,84.4-1s8.533,3.413,8.533,8.533V24.6
		C92.934,29.72,89.521,33.133,84.4,33.133z"/>
	<path d="M118.534,33.133c-5.12,0-8.533-3.413-8.533-8.533V7.533C110,2.413,113.414-1,118.534-1c5.12,0,8.533,3.413,8.533,8.533
		V24.6C127.067,29.72,123.654,33.133,118.534,33.133z"/>
	<path d="M152.667,33.133c-5.12,0-8.533-3.413-8.533-8.533V7.533c0-5.12,3.413-8.533,8.533-8.533c5.12,0,8.533,3.413,8.533,8.533
		V24.6C161.201,29.72,157.787,33.133,152.667,33.133z"/>
	<path d="M186.801,33.133c-5.12,0-8.533-3.413-8.533-8.533V7.533c0-5.12,3.413-8.533,8.533-8.533c5.12,0,8.533,3.413,8.533,8.533
		V24.6C195.334,29.72,191.921,33.133,186.801,33.133z"/>
	<path d="M220.934,33.133c-5.12,0-8.533-3.413-8.533-8.533V7.533c0-5.12,3.413-8.533,8.533-8.533s8.533,3.413,8.533,8.533V24.6
		C229.467,29.72,226.054,33.133,220.934,33.133z"/>
	<path d="M280.667,408.6h-51.2c-5.12,0-8.533-3.413-8.533-8.533v-34.133c0-5.12,3.413-8.533,8.533-8.533h51.2
		c5.12,0,8.533,3.413,8.533,8.533v34.133C289.201,405.187,285.787,408.6,280.667,408.6z M238.001,391.533h34.133v-17.067h-34.133
		V391.533z"/>
	<path d="M229.467,383H212.4c-5.12,0-8.533-3.413-8.533-8.533c0-5.12,3.413-8.533,8.533-8.533h17.067
		c5.12,0,8.533,3.413,8.533,8.533C238.001,379.587,234.587,383,229.467,383z"/>
	<path d="M297.734,391.533h-17.067c-5.12,0-8.533-3.413-8.533-8.533c0-5.12,3.413-8.533,8.533-8.533h17.067
		c5.12,0,8.533,3.413,8.533,8.533C306.267,388.12,302.854,391.533,297.734,391.533z"/>
	<path d="M272.134,425.667c-5.12,0-8.533-3.413-8.533-8.533v-17.067c0-5.12,3.413-8.533,8.533-8.533c5.12,0,8.533,3.413,8.533,8.533
		v17.067C280.667,422.253,277.254,425.667,272.134,425.667z"/>
	<path d="M246.534,374.467c-5.12,0-8.533-3.413-8.533-8.533v-17.067c0-5.12,3.413-8.533,8.533-8.533c5.12,0,8.533,3.413,8.533,8.533
		v17.067C255.067,371.053,251.654,374.467,246.534,374.467z"/>
	<path d="M152.667,135.533h-34.133c-5.12,0-8.533-3.413-8.533-8.533s3.413-8.533,8.533-8.533h34.133c5.12,0,8.533,3.413,8.533,8.533
		S157.787,135.533,152.667,135.533z"/>
	<path d="M169.734,169.667h-68.267C77.574,169.667,58.8,150.893,58.8,127s18.773-42.667,42.667-42.667h68.267
		c23.893,0,42.667,18.773,42.667,42.667S193.627,169.667,169.734,169.667z M101.467,101.4c-14.507,0-25.6,11.093-25.6,25.6
		s11.093,25.6,25.6,25.6h68.267c14.507,0,25.6-11.093,25.6-25.6s-11.093-25.6-25.6-25.6H101.467z"/>
</g>
<g>
</g>
<g>
</g>
<g>
</g>
<g>
</g>
<g>
</g>
<g>
</g>
<g>
</g>
<g>
</g>
<g>
</g>
<g>
</g>
<g>
</g>
<g>
</g>
<g>
</g>
<g>
</g>
<g>
</g>
</svg>
